<svg
   width="210mm"
   height="297mm"
   viewBox="0 0 210 297"
   version="1.1"
   id="svg5"
   sodipodi:docname="traxxxlautsae.svg"
   inkscape:version="1.1.1 (3bf5ae0d25, 2021-09-20)"
   xmlns:inkscape="http://www.inkscape.org/namespaces/inkscape"
   xmlns:sodipodi="http://sodipodi.sourceforge.net/DTD/sodipodi-0.dtd"
   xmlns="http://www.w3.org/2000/svg"
   xmlns:svg="http://www.w3.org/2000/svg"><g xmlns="http://www.w3.org/2000/svg" inkscape:label="00004" id="g3380" transform="translate(-2.47844, 8.26155)" inkscape:groupmode="layer">
    <g inkscape:label="00004" id="g1514">
      <g inkscape:label="00004" id="g1956"/>
      <g id="g2592">
        <path d="m 102.9642,147.96386 0.17946,0.48923 0.34418,0.29993 -0.20405,0.65641 -0.37614,0.0246 -0.1008,-0.55069 -0.34664,-0.29993 -1.02026,-0.23847 -0.22126,0.15979 0.21143,0.50645 0.27781,0.14751 0.15487,0.59986 -0.46711,0.67115 0.0983,0.47203 -0.19667,0.20897 -0.77687,0.12784 -0.894883,-0.091 -0.845702,-0.19423 -0.0197,0.28765 -0.939133,0.56053 -0.410561,0.12046 -0.435146,-0.56545 -0.8285,0.0418 -0.390894,-0.67607 -0.948963,-1.03256 0.425312,-0.67608 0.966172,0.62445 0.491692,0.51873 0.548235,-0.0565 -0.20651,-0.53349 -0.06638,-0.5851 -0.494149,-1.07681 0.03196,-0.33926 0.403186,-0.4327 0.95634,-0.0148 1.059589,0.22618 -0.405641,0.57036 0.408103,0.2901 0.481854,-0.45973 0.329441,-0.53594 1.964298,-0.16472 0.36877,0.30976 -0.3319,0.39581 z" id="path37499" style="fill:#790000;fill-opacity:1;stroke:#ffffff;stroke-width:0.524986;stroke-linecap:round;stroke-linejoin:round;stroke-miterlimit:4;stroke-dasharray:none;stroke-opacity:1" sodipodi:nodetypes="cccccccccccccccccccccccccccccccccccccccccccc"/>
      </g>
    </g>
  </g></svg>