<svg
   width="210mm"
   height="297mm"
   viewBox="0 0 210 297"
   version="1.1"
   id="svg5"
   sodipodi:docname="traxxxlautsae.svg"
   inkscape:version="1.1.1 (3bf5ae0d25, 2021-09-20)"
   xmlns:inkscape="http://www.inkscape.org/namespaces/inkscape"
   xmlns:sodipodi="http://sodipodi.sourceforge.net/DTD/sodipodi-0.dtd"
   xmlns="http://www.w3.org/2000/svg"
   xmlns:svg="http://www.w3.org/2000/svg"><g xmlns="http://www.w3.org/2000/svg" inkscape:label="00005" id="g3386" transform="translate(-2.47844, 8.26155)" inkscape:groupmode="layer">
    <g inkscape:label="00005" id="g1519">
      <g inkscape:label="00005" id="g1962"/>
      <g id="g2596">
        <path d="m 77.865834,144.21964 0.218803,0.17454 0.88996,0.16963 0.513817,0.32452 0.833416,0.17209 0.870293,-0.0123 1.981515,-0.31714 2.51254,-0.79163 1.24152,-0.52118 1.035009,-0.61708 0.103255,0.6392 0.292556,0.0172 0.592488,0.48186 -1.079262,0.8998 -0.464647,0.25813 -0.459731,-0.30977 -0.626907,0.17456 -1.46278,0.62198 -0.189301,-0.51136 -0.356476,-0.33926 -0.381061,-0.0197 -0.137673,0.38352 0.255679,0.35648 -0.233553,0.31223 -0.742454,0.0369 -0.690825,0.38845 -0.695743,-0.0442 -0.326974,0.4081 -0.712952,0.059 -0.442522,-0.41549 -0.44498,-0.10079 -0.511358,0.80391 -1.46524,-0.032 -1.484906,-0.33189 -0.3491,-0.0541 -0.201594,-0.65641 0.240929,-0.1598 -0.04425,-0.7277 0.550694,-0.0762 z" id="path37505" style="fill:#790000;fill-opacity:1;stroke:#ffffff;stroke-width:0.524986;stroke-linecap:round;stroke-linejoin:round;stroke-miterlimit:4;stroke-dasharray:none;stroke-opacity:1" sodipodi:nodetypes="cccccccccccccccccccccccccccccccccccccccc"/>
      </g>
    </g>
  </g></svg>