<svg
   width="210mm"
   height="297mm"
   viewBox="0 0 210 297"
   version="1.1"
   id="svg5"
   sodipodi:docname="traxxxlautsae.svg"
   inkscape:version="1.1.1 (3bf5ae0d25, 2021-09-20)"
   xmlns:inkscape="http://www.inkscape.org/namespaces/inkscape"
   xmlns:sodipodi="http://sodipodi.sourceforge.net/DTD/sodipodi-0.dtd"
   xmlns="http://www.w3.org/2000/svg"
   xmlns:svg="http://www.w3.org/2000/svg"><g xmlns="http://www.w3.org/2000/svg" inkscape:label="00007" id="g3398" transform="translate(-2.47844, 8.26155)" inkscape:groupmode="layer">
    <g inkscape:label="00007" id="g1529">
      <g inkscape:label="00007" id="g1974"/>
      <g id="g2604">
        <path d="m 93.772036,140.5762 0.899794,0.0836 0.287639,1.36936 0.403187,0.42285 1.209559,0.31468 0.36631,0.005 0.236012,0.72279 0.663782,0.39581 0.280264,0.64657 -0.06146,0.33681 -0.708035,0.57282 -0.462189,-0.11555 -0.46219,0.15735 -0.464647,0.89241 0.07375,0.64411 -0.105714,1.0006 -0.147507,0.26797 0.454814,0.67116 0.796539,0.60232 0.20651,0.53348 -0.548235,0.0565 -0.491691,-0.51874 -0.966173,-0.62444 -0.592487,-0.90717 -0.420396,-0.31222 -1.826631,0.73753 0.115547,0.55315 -0.912087,0.0713 0.169633,-1.45786 -0.826041,-0.17455 -0.162258,-0.67853 -0.656407,-0.11801 -0.469565,0.0811 -0.528568,-0.39827 -0.260596,0.11063 -0.585112,-0.52365 0.658866,-0.44989 -0.248304,-0.26306 0.894877,-0.19176 0.452356,-0.43514 -0.05163,-0.77197 -0.570362,-0.0762 -0.462189,0.1303 -0.592488,-0.48185 -0.292556,-0.0172 -0.103255,-0.63921 1.376735,-1.01042 0.479398,-0.58757 0.676075,-1.04976 1.157932,-0.43514 1.212019,-0.62446 0.442522,0.43024 z" id="path37509" style="fill:#790000;fill-opacity:1;stroke:#ffffff;stroke-width:0.524986;stroke-linecap:round;stroke-linejoin:round;stroke-miterlimit:4;stroke-dasharray:none;stroke-opacity:1" sodipodi:nodetypes="ccccccccccccccccccccccccccccccccccccccccccccccccccccc"/>
      </g>
    </g>
  </g></svg>