<svg
   width="210mm"
   height="297mm"
   viewBox="0 0 210 297"
   version="1.1"
   id="svg5"
   sodipodi:docname="traxxxlautsae.svg"
   inkscape:version="1.1.1 (3bf5ae0d25, 2021-09-20)"
   xmlns:inkscape="http://www.inkscape.org/namespaces/inkscape"
   xmlns:sodipodi="http://sodipodi.sourceforge.net/DTD/sodipodi-0.dtd"
   xmlns="http://www.w3.org/2000/svg"
   xmlns:svg="http://www.w3.org/2000/svg"><g xmlns="http://www.w3.org/2000/svg" inkscape:label="00027" id="g3500" transform="translate(-2.47844, 8.26155)" inkscape:groupmode="layer">
    <g inkscape:label="00027" id="g1611">
      <g inkscape:label="00027" id="g2076"/>
      <path d="m 92.864866,139.09375 1.632414,-1.16284 1.015342,-0.95142 1.135806,-1.43574 0.68345,-0.51628 1.339856,-1.27594 0.619531,0.57036 0.730155,0.11556 1.0178,-0.26798 0.62199,0.2311 0.32944,-0.0442 1.18497,3.62622 -0.0296,0.54086 -0.85309,0.61708 -0.29746,0.45235 -0.42287,0.21143 -0.31713,-0.12047 -0.50398,0.32206 -0.61953,0.15489 -0.329438,0.3073 -0.474477,-0.24339 -0.132761,0.36631 -0.420389,0.34418 -0.295017,0.57037 -0.435147,0.45727 -1.347232,-0.69083 -0.277807,-0.0221 -0.295014,-1.2489 -0.420395,-0.34418 -1.932346,0.91946 -0.464647,-1.05221 z" id="g2542" style="fill:#790000;fill-opacity:1;stroke:#ffffff;stroke-width:0.524986;stroke-linecap:round;stroke-linejoin:round;stroke-miterlimit:4;stroke-dasharray:none;stroke-opacity:1" sodipodi:nodetypes="cccccccccccccccccccccccccccccccc"/>
    </g>
  </g></svg>