<svg
   width="210mm"
   height="297mm"
   viewBox="0 0 210 297"
   version="1.1"
   id="svg5"
   sodipodi:docname="traxxxlautsae.svg"
   inkscape:version="1.1.1 (3bf5ae0d25, 2021-09-20)"
   xmlns:inkscape="http://www.inkscape.org/namespaces/inkscape"
   xmlns:sodipodi="http://sodipodi.sourceforge.net/DTD/sodipodi-0.dtd"
   xmlns="http://www.w3.org/2000/svg"
   xmlns:svg="http://www.w3.org/2000/svg"><g xmlns="http://www.w3.org/2000/svg" inkscape:label="00032" id="g3525" transform="translate(-2.47844,8.26155)" inkscape:groupmode="layer" style="display:inline">
    <g inkscape:label="00032" id="g1631">
      <g inkscape:label="00032" id="g2101"/>
      <path d="m 92.50839,149.08491 -0.115547,-0.55315 1.826632,-0.73753 0.420395,0.31222 0.592488,0.90717 -0.425313,0.67608 0.948963,1.03255 0.390895,0.67607 0.828499,-0.0418 0.435146,0.56544 0.410562,-0.12046 0.939129,-0.56053 0.0197,-0.28764 0.845712,0.19422 0.894869,0.091 0.77688,-0.12784 0.19667,-0.20897 0.88013,0.55315 0.0148,0.34665 0.61215,0.47448 1.15547,1.38165 -0.15487,0.38598 -0.0393,1.41361 -0.1893,0.70558 0.0663,0.75475 -0.88996,0.0787 -1.54637,1.71108 -0.80146,0.27781 -0.71049,0.003 0.09588,0.52364 -0.668702,0.28027 -0.784247,-0.62445 -0.430229,-0.0983 -0.344183,-0.39826 -0.835876,-0.0738 -0.314681,-1.06697 -0.267972,-0.30731 -0.710494,-0.44005 -0.626906,0.20651 -0.553152,-0.15735 0.06392,-0.35402 -3.063235,0.24093 -0.05162,-1.05959 -0.63674,0.15242 -0.644115,-0.0738 0.511359,-0.48431 -0.145049,-0.38844 0.914545,-0.55807 0.629364,0.27534 0.381061,-0.0934 -0.03933,-0.71295 0.973548,-1.34723 -0.0713,-0.62199 0.169633,-0.45973 -0.754744,-0.39581 -0.435147,-0.74737 z" id="g2557" style="fill:#790000;fill-opacity:1;stroke:#ffffff;stroke-width:0.524986;stroke-linecap:round;stroke-linejoin:round;stroke-miterlimit:4;stroke-dasharray:none;stroke-opacity:1" sodipodi:nodetypes="ccccccccccccccccccccccccccccccccccccccccccccccccccccccccc"/>
    </g>
  </g></svg>