<svg
   width="210mm"
   height="297mm"
   viewBox="0 0 210 297"
   version="1.1"
   id="svg5"
   sodipodi:docname="traxxxlautsae.svg"
   inkscape:version="1.1.1 (3bf5ae0d25, 2021-09-20)"
   xmlns:inkscape="http://www.inkscape.org/namespaces/inkscape"
   xmlns:sodipodi="http://sodipodi.sourceforge.net/DTD/sodipodi-0.dtd"
   xmlns="http://www.w3.org/2000/svg"
   xmlns:svg="http://www.w3.org/2000/svg"><g xmlns="http://www.w3.org/2000/svg" inkscape:label="00034" id="g3535" transform="translate(-2.47844,8.26155)" inkscape:groupmode="layer" style="display:inline">
    <g inkscape:label="00034" id="g1639">
      <g inkscape:label="00034" id="g2111"/>
      <path d="m 100.30907,126.24096 0.70065,1.47507 -0.22372,1.26365 0.47203,-0.28273 0.75966,-0.091 1.19235,-0.47203 0.71295,-0.44252 0.52365,-0.0566 0.32206,0.17208 0.0123,0.81375 0.71295,0.68591 0.12785,0.48923 0.88996,0.4499 -0.19668,0.6982 0.0959,0.53348 0.31468,0.47203 0.58757,-0.0344 0.30239,0.43023 v 0.51136 l -0.4499,0.0148 -0.007,0.35648 -1.18497,-0.0221 0.30976,0.58758 0.01,0.76212 0.67116,-0.16718 0.77195,0.49906 -0.1598,0.52611 0.1598,0.51137 -0.11309,0.51627 -0.41055,0.52365 -0.70067,-0.23355 -1.8881,-0.15734 -0.31468,0.66132 -1.13335,0.74737 -1.18497,-3.62622 -0.32944,0.0442 -0.62199,-0.2311 -1.0178,0.26797 -0.730155,-0.11555 -0.61953,-0.57036 0.744914,-0.94896 0.587571,-0.96372 0.31714,-0.79162 0.23601,-1.00796 -0.01,-0.79163 -0.21635,-1.51195 z" id="g2563" style="fill:#790000;fill-opacity:1;stroke:#ffffff;stroke-width:0.524986;stroke-linecap:round;stroke-linejoin:round;stroke-miterlimit:4;stroke-dasharray:none;stroke-opacity:1" sodipodi:nodetypes="ccccccccccccccccccccccccccccccccccccccccccccccc"/>
    </g>
  </g></svg>