<svg
   width="210mm"
   height="297mm"
   viewBox="0 0 210 297"
   version="1.1"
   id="svg5"
   sodipodi:docname="traxxxlautsae.svg"
   inkscape:version="1.1.1 (3bf5ae0d25, 2021-09-20)"
   xmlns:inkscape="http://www.inkscape.org/namespaces/inkscape"
   xmlns:sodipodi="http://sodipodi.sourceforge.net/DTD/sodipodi-0.dtd"
   xmlns="http://www.w3.org/2000/svg"
   xmlns:svg="http://www.w3.org/2000/svg"><g xmlns="http://www.w3.org/2000/svg" inkscape:label="00037" id="g3550" transform="translate(-2.47844,8.26155)" inkscape:groupmode="layer" style="display:inline">
    <g inkscape:label="00037" id="g1651">
      <g inkscape:label="00037" id="g2126"/>
      <path d="m 163.66098,157.50512 0.33189,0.5212 -0.0836,0.3491 0.41793,0.4671 -0.44743,0.67362 0.0811,0.62199 0.51136,0.62444 -0.76704,0.57283 -0.46957,0.0148 -0.38106,1.2907 0.40811,0.51135 0.0393,0.83587 -0.19175,0.41549 -0.60479,-0.50645 -0.55315,0.0344 -0.80391,0.23602 -1.0178,0.10079 -0.17701,0.0221 -0.32451,-0.86784 -0.59741,0.59249 -0.18684,-0.80391 0.30485,-0.55315 0.0492,-1.02026 -2.81248,-0.12785 -2.39453,-1.51686 -0.30731,-0.39089 -0.34664,-0.0123 -0.10325,-1.50212 1.71108,-0.118 2.00609,-0.007 0.8113,-0.36385 0.59494,-0.52612 0.45973,0.27044 0.53349,-0.14259 0.0418,-0.52366 0.34664,-0.13275 0.34664,-0.61461 0.72771,-0.15243 0.34664,0.19914 0.55315,-0.25322 0.0148,0.81866 0.51382,0.43269 z" id="g2572" style="fill:#790000;fill-opacity:1;stroke:#ffffff;stroke-width:0.524986;stroke-linecap:round;stroke-linejoin:round;stroke-miterlimit:4;stroke-dasharray:none;stroke-opacity:1" sodipodi:nodetypes="ccccccccccccccccccccccccccccccccccccccccccc"/>
    </g>
  </g></svg>